<svg width="136" height="45" viewBox="0 0 136 45" fill="none" xmlns="http://www.w3.org/2000/svg">
<path d="M9.992 31V14.2H13.208L23.12 26.296H21.56V14.2H25.4V31H22.208L12.272 18.904H13.832V31H9.992ZM34.5588 31.192C33.4868 31.192 32.5268 30.984 31.6788 30.568C30.8468 30.152 30.1988 29.52 29.7348 28.672C29.2708 27.808 29.0388 26.712 29.0388 25.384V18.088H32.7828V24.832C32.7828 25.904 33.0068 26.696 33.4548 27.208C33.9188 27.704 34.5668 27.952 35.3988 27.952C35.9748 27.952 36.4868 27.832 36.9348 27.592C37.3828 27.336 37.7348 26.952 37.9908 26.44C38.2468 25.912 38.3748 25.256 38.3748 24.472V18.088H42.1188V31H38.5668V27.448L39.2148 28.48C38.7828 29.376 38.1428 30.056 37.2948 30.52C36.4628 30.968 35.5508 31.192 34.5588 31.192ZM50.8674 31.192C49.3474 31.192 48.1634 30.808 47.3154 30.04C46.4674 29.256 46.0434 28.096 46.0434 26.56V15.232H49.7874V26.512C49.7874 27.056 49.9314 27.48 50.2194 27.784C50.5074 28.072 50.8994 28.216 51.3954 28.216C51.9874 28.216 52.4914 28.056 52.9074 27.736L53.9154 30.376C53.5314 30.648 53.0674 30.856 52.5234 31C51.9954 31.128 51.4434 31.192 50.8674 31.192ZM44.0514 21.256V18.376H53.0034V21.256H44.0514ZM56.0171 31V18.088H59.5931V21.736L59.0891 20.68C59.4731 19.768 60.0891 19.08 60.9371 18.616C61.7851 18.136 62.8171 17.896 64.0331 17.896V21.352C63.8731 21.336 63.7291 21.328 63.6011 21.328C63.4731 21.312 63.3371 21.304 63.1931 21.304C62.1691 21.304 61.3371 21.6 60.6971 22.192C60.0731 22.768 59.7611 23.672 59.7611 24.904V31H56.0171ZM66.2827 31V18.088H70.0267V31H66.2827ZM68.1547 16.288C67.4667 16.288 66.9067 16.088 66.4747 15.688C66.0427 15.288 65.8267 14.792 65.8267 14.2C65.8267 13.608 66.0427 13.112 66.4747 12.712C66.9067 12.312 67.4667 12.112 68.1547 12.112C68.8427 12.112 69.4027 12.304 69.8347 12.688C70.2667 13.056 70.4827 13.536 70.4827 14.128C70.4827 14.752 70.2667 15.272 69.8347 15.688C69.4187 16.088 68.8587 16.288 68.1547 16.288ZM77.4693 31L71.9733 14.2H76.0053L80.7813 29.08H78.7653L83.7573 14.2H87.3573L92.1573 29.08H90.2133L95.1093 14.2H98.8293L93.3333 31H89.1573L84.9093 17.944H86.0133L81.6453 31H77.4693ZM106.183 31.192C104.711 31.192 103.415 30.904 102.295 30.328C101.191 29.752 100.335 28.968 99.7269 27.976C99.1189 26.968 98.8149 25.824 98.8149 24.544C98.8149 23.248 99.1109 22.104 99.7029 21.112C100.311 20.104 101.135 19.32 102.175 18.76C103.215 18.184 104.391 17.896 105.703 17.896C106.967 17.896 108.103 18.168 109.111 18.712C110.135 19.24 110.943 20.008 111.535 21.016C112.127 22.008 112.423 23.2 112.423 24.592C112.423 24.736 112.415 24.904 112.399 25.096C112.383 25.272 112.367 25.44 112.351 25.6H101.863V23.416H110.383L108.943 24.064C108.943 23.392 108.807 22.808 108.535 22.312C108.263 21.816 107.887 21.432 107.407 21.16C106.927 20.872 106.367 20.728 105.727 20.728C105.087 20.728 104.519 20.872 104.023 21.16C103.543 21.432 103.167 21.824 102.895 22.336C102.623 22.832 102.487 23.424 102.487 24.112V24.688C102.487 25.392 102.639 26.016 102.943 26.56C103.263 27.088 103.703 27.496 104.263 27.784C104.839 28.056 105.511 28.192 106.279 28.192C106.967 28.192 107.567 28.088 108.079 27.88C108.607 27.672 109.087 27.36 109.519 26.944L111.511 29.104C110.919 29.776 110.175 30.296 109.279 30.664C108.383 31.016 107.351 31.192 106.183 31.192ZM114.916 31V13.192H118.66V31H114.916ZM122.134 31V13.192H125.878V31H122.134Z" fill="url(#paint0_linear_95_8)" fill-opacity="0.92"/>
<defs>
<linearGradient id="paint0_linear_95_8" x1="8" y1="22.5" x2="128" y2="22.5" gradientUnits="userSpaceOnUse">
<stop stop-color="#2F855A"/>
<stop offset="1" stop-color="#DD6B20"/>
</linearGradient>
</defs>
</svg>
